<mxfile host="app.diagrams.net" agent="Mozilla/5.0 (Windows NT 10.0; Win64; x64) AppleWebKit/537.36 (KHTML, like Gecko) Chrome/130.0.0.0 Safari/537.36 Edg/130.0.0.0" version="24.8.6">
  <diagram name="第 1 页" id="P6v_exmW2gWecA6pwJBu">
    <mxGraphModel dx="1042" dy="1784" grid="1" gridSize="10" guides="1" tooltips="1" connect="1" arrows="1" fold="1" page="1" pageScale="1" pageWidth="827" pageHeight="1169" math="0" shadow="0">
      <root>
        <mxCell id="0" />
        <mxCell id="1" parent="0" />
        <mxCell id="-jgg0OIqkrW__p7xXhIb-36" value="虚拟dom" style="rounded=1;whiteSpace=wrap;html=1;fillColor=#d5e8d4;strokeColor=#82b366;" vertex="1" parent="1">
          <mxGeometry x="94" y="60" width="120" height="60" as="geometry" />
        </mxCell>
        <mxCell id="-jgg0OIqkrW__p7xXhIb-37" value="渲染器" style="rhombus;whiteSpace=wrap;html=1;fillColor=#fff2cc;strokeColor=#d6b656;" vertex="1" parent="1">
          <mxGeometry x="294" y="50" width="80" height="80" as="geometry" />
        </mxCell>
        <mxCell id="-jgg0OIqkrW__p7xXhIb-38" value="" style="endArrow=classic;html=1;rounded=0;fontSize=12;startSize=8;endSize=8;curved=1;entryX=0;entryY=0.5;entryDx=0;entryDy=0;exitX=1;exitY=0.5;exitDx=0;exitDy=0;" edge="1" source="-jgg0OIqkrW__p7xXhIb-36" target="-jgg0OIqkrW__p7xXhIb-37" parent="1">
          <mxGeometry width="50" height="50" relative="1" as="geometry">
            <mxPoint x="334" y="290" as="sourcePoint" />
            <mxPoint x="384" y="240" as="targetPoint" />
          </mxGeometry>
        </mxCell>
        <mxCell id="-jgg0OIqkrW__p7xXhIb-39" value="" style="endArrow=classic;html=1;rounded=0;fontSize=12;startSize=8;endSize=8;curved=1;entryX=0;entryY=0.5;entryDx=0;entryDy=0;exitX=1;exitY=0.5;exitDx=0;exitDy=0;" edge="1" source="-jgg0OIqkrW__p7xXhIb-42" parent="1">
          <mxGeometry width="50" height="50" relative="1" as="geometry">
            <mxPoint x="370" y="89.5" as="sourcePoint" />
            <mxPoint x="550" y="89.5" as="targetPoint" />
          </mxGeometry>
        </mxCell>
        <mxCell id="-jgg0OIqkrW__p7xXhIb-40" value="&lt;h1 style=&quot;text-align: center; margin-top: 0px;&quot;&gt;&lt;span style=&quot;font-size: 12px; font-weight: normal; text-align: left;&quot;&gt;调用原生domAPI完成真实dom对象的创建&lt;/span&gt;&lt;/h1&gt;" style="text;html=1;whiteSpace=wrap;overflow=hidden;rounded=0;labelBackgroundColor=#ccfff9;" vertex="1" parent="1">
          <mxGeometry x="270" y="-20" width="151" height="60" as="geometry" />
        </mxCell>
        <mxCell id="-jgg0OIqkrW__p7xXhIb-41" value="" style="endArrow=classic;html=1;rounded=0;fontSize=12;startSize=8;endSize=8;curved=1;entryX=0;entryY=0.5;entryDx=0;entryDy=0;exitX=1;exitY=0.5;exitDx=0;exitDy=0;" edge="1" parent="1">
          <mxGeometry width="50" height="50" relative="1" as="geometry">
            <mxPoint x="374" y="89.5" as="sourcePoint" />
            <mxPoint x="444" y="90" as="targetPoint" />
          </mxGeometry>
        </mxCell>
        <mxCell id="-jgg0OIqkrW__p7xXhIb-42" value="真实dom" style="rounded=1;whiteSpace=wrap;html=1;fillColor=#d5e8d4;strokeColor=#82b366;" vertex="1" parent="1">
          <mxGeometry x="450" y="60" width="120" height="60" as="geometry" />
        </mxCell>
        <mxCell id="-jgg0OIqkrW__p7xXhIb-43" value="模板" style="rounded=1;whiteSpace=wrap;html=1;fillColor=#d5e8d4;strokeColor=#82b366;" vertex="1" parent="1">
          <mxGeometry x="94" y="220" width="120" height="60" as="geometry" />
        </mxCell>
        <mxCell id="-jgg0OIqkrW__p7xXhIb-44" value="" style="shape=requiredInterface;html=1;verticalLabelPosition=bottom;sketch=0;direction=west;" vertex="1" parent="1">
          <mxGeometry x="84" y="90" width="10" height="160" as="geometry" />
        </mxCell>
        <mxCell id="-jgg0OIqkrW__p7xXhIb-45" value="两种声明式描述ui的方式" style="text;strokeColor=none;fillColor=none;align=left;verticalAlign=middle;spacingLeft=4;spacingRight=4;overflow=hidden;points=[[0,0.5],[1,0.5]];portConstraint=eastwest;rotatable=0;whiteSpace=wrap;html=1;" vertex="1" parent="1">
          <mxGeometry x="4" y="155" width="80" height="45" as="geometry" />
        </mxCell>
        <mxCell id="-jgg0OIqkrW__p7xXhIb-46" value="编译器" style="rhombus;whiteSpace=wrap;html=1;fillColor=#fff2cc;strokeColor=#d6b656;" vertex="1" parent="1">
          <mxGeometry x="294" y="210" width="80" height="80" as="geometry" />
        </mxCell>
        <mxCell id="-jgg0OIqkrW__p7xXhIb-47" value="" style="endArrow=classic;html=1;rounded=0;fontSize=12;startSize=8;endSize=8;curved=1;entryX=0;entryY=0.5;entryDx=0;entryDy=0;exitX=1;exitY=0.5;exitDx=0;exitDy=0;" edge="1" parent="1">
          <mxGeometry width="50" height="50" relative="1" as="geometry">
            <mxPoint x="214" y="250" as="sourcePoint" />
            <mxPoint x="294" y="250" as="targetPoint" />
          </mxGeometry>
        </mxCell>
        <mxCell id="-jgg0OIqkrW__p7xXhIb-50" value="" style="endArrow=classic;html=1;rounded=0;fontSize=12;startSize=8;endSize=8;curved=1;exitX=0.5;exitY=0;exitDx=0;exitDy=0;entryX=0.5;entryY=1;entryDx=0;entryDy=0;" edge="1" parent="1" source="-jgg0OIqkrW__p7xXhIb-46" target="-jgg0OIqkrW__p7xXhIb-37">
          <mxGeometry width="50" height="50" relative="1" as="geometry">
            <mxPoint x="330" y="210" as="sourcePoint" />
            <mxPoint x="334" y="140" as="targetPoint" />
          </mxGeometry>
        </mxCell>
        <mxCell id="-jgg0OIqkrW__p7xXhIb-52" value="能够识别哪些式静态属性,动态属性&lt;div&gt;告诉渲染器哪些位置会更新&lt;/div&gt;" style="text;html=1;whiteSpace=wrap;overflow=hidden;rounded=0;labelBackgroundColor=#ccfff9;" vertex="1" parent="1">
          <mxGeometry x="380" y="220" width="150" height="60" as="geometry" />
        </mxCell>
      </root>
    </mxGraphModel>
  </diagram>
</mxfile>
